HIERARCHY
ROOT Hips
{
	OFFSET 0.00000 0.00000 0.00000
	CHANNELS 6 Xposition Yposition Zposition Zrotation Yrotation Xrotation 
	JOINT LHipJoint
	{
		OFFSET 0 0 0
		CHANNELS 3 Zrotation Yrotation Xrotation
		JOINT LeftUpLeg
		{
			OFFSET 1.37959 -1.78713 0.86582
			CHANNELS 3 Zrotation Yrotation Xrotation
			JOINT LeftLeg
			{
				OFFSET 2.54611 -6.99539 0.00000
				CHANNELS 3 Zrotation Yrotation Xrotation
				JOINT LeftFoot
				{
					OFFSET 2.59951 -7.14211 0.00000
					CHANNELS 3 Zrotation Yrotation Xrotation
					JOINT LeftToeBase
					{
						OFFSET 0.18493 -0.50810 1.96120
						CHANNELS 3 Zrotation Yrotation Xrotation
						End Site
						{
							OFFSET 0.00000 -0.00000 1.02054
						}
					}
				}
			}
		}
	}
	JOINT RHipJoint
	{
		OFFSET 0 0 0
		CHANNELS 3 Zrotation Yrotation Xrotation
		JOINT RightUpLeg
		{
			OFFSET -1.33564 -1.78713 0.86582
			CHANNELS 3 Zrotation Yrotation Xrotation
			JOINT RightLeg
			{
				OFFSET -2.52705 -6.94302 0.00000
				CHANNELS 3 Zrotation Yrotation Xrotation
				JOINT RightFoot
				{
					OFFSET -2.55964 -7.03257 0.00000
					CHANNELS 3 Zrotation Yrotation Xrotation
					JOINT RightToeBase
					{
						OFFSET -0.25804 -0.70896 2.12109
						CHANNELS 3 Zrotation Yrotation Xrotation
						End Site
						{
							OFFSET -0.00000 -0.00000 1.11821
						}
					}
				}
			}
		}
	}
	JOINT LowerBack
	{
		OFFSET 0 0 0
		CHANNELS 3 Zrotation Yrotation Xrotation
		JOINT Spine
		{
			OFFSET -0.02031 2.24248 -0.18900
			CHANNELS 3 Zrotation Yrotation Xrotation
			JOINT Spine1
			{
				OFFSET 0.08342 2.24689 -0.03799
				CHANNELS 3 Zrotation Yrotation Xrotation
				JOINT Neck
				{
					OFFSET 0 0 0
					CHANNELS 3 Zrotation Yrotation Xrotation
					JOINT Neck1
					{
						OFFSET -0.11607 1.55844 0.24628
						CHANNELS 3 Zrotation Yrotation Xrotation
						JOINT Head
						{
							OFFSET 0.06877 1.60174 -0.17013
							CHANNELS 3 Zrotation Yrotation Xrotation
							End Site
							{
								OFFSET 0.03358 1.61266 -0.08543
							}
						}
					}
				}
				JOINT LeftShoulder
				{
					OFFSET 0 0 0
					CHANNELS 3 Zrotation Yrotation Xrotation
					JOINT LeftArm
					{
						OFFSET 3.47537 0.55866 -0.72348
						CHANNELS 3 Zrotation Yrotation Xrotation
						JOINT LeftForeArm
						{
							OFFSET 5.38154 -0.00000 0.00000
							CHANNELS 3 Zrotation Yrotation Xrotation
							JOINT LeftHand
							{
								OFFSET 3.33312 -0.00000 0.00000
								CHANNELS 3 Zrotation Yrotation Xrotation
								JOINT LeftFingerBase
								{
									OFFSET 0 0 0
									CHANNELS 3 Zrotation Yrotation Xrotation
									JOINT LeftHandIndex1
									{
										OFFSET 0.71079 -0.00000 0.00000
										CHANNELS 3 Zrotation Yrotation Xrotation
										End Site
										{
											OFFSET 0.57306 -0.00000 0.00000
										}
									}
								}
								JOINT LThumb
								{
									OFFSET 0 0 0
									CHANNELS 3 Zrotation Yrotation Xrotation
									End Site
									{
										OFFSET 0.58181 -0.00000 0.58181
									}
								}
							}
						}
					}
				}
				JOINT RightShoulder
				{
					OFFSET 0 0 0
					CHANNELS 3 Zrotation Yrotation Xrotation
					JOINT RightArm
					{
						OFFSET -3.27844 0.90739 -0.35708
						CHANNELS 3 Zrotation Yrotation Xrotation
						JOINT RightForeArm
						{
							OFFSET -5.16954 -0.00000 0.00000
							CHANNELS 3 Zrotation Yrotation Xrotation
							JOINT RightHand
							{
								OFFSET -3.38287 -0.00000 0.00000
								CHANNELS 3 Zrotation Yrotation Xrotation
								JOINT RightFingerBase
								{
									OFFSET 0 0 0
									CHANNELS 3 Zrotation Yrotation Xrotation
									JOINT RightHandIndex1
									{
										OFFSET -0.81797 -0.00000 0.00000
										CHANNELS 3 Zrotation Yrotation Xrotation
										End Site
										{
											OFFSET -0.65947 -0.00000 0.00000
										}
									}
								}
								JOINT RThumb
								{
									OFFSET 0 0 0
									CHANNELS 3 Zrotation Yrotation Xrotation
									End Site
									{
										OFFSET -0.66953 -0.00000 0.66953
									}
								}
							}
						}
					}
				}
			}
		}
	}
}
MOTION
Frames: 8
Frame Time: .0083333
12.8011 17.5657 2.6411 -8.0505 -3.2952 3.2949 0.0000 0.0000 0.0000 -5.2542 -11.2261 -35.0995 1.8436 8.5324 24.3432 0.7744 -2.8461 -15.9055 0.8783 -5.9746 -16.7109 0.0000 0.0000 0.0000 32.0239 -3.7484 16.4467 0.0000 -0.0000 0.0000 -0.3807 1.9513 -11.1412 -0.0037 0.3903 -1.0724 6.5003 4.5238 0.9923 1.8629 6.0129 1.8034 -1.6361 3.0823 1.7747 -11.4272 -4.7982 -14.0293 7.1964 -5.4409 16.9602 3.6682 -2.6423 8.0813 0.0000 0.0000 0.0000 -87.7666 13.0993 4.0542 14.1242 -22.9120 -2.8763 -0.0000 -0.0000 14.3487 -7.6775 36.3829 -4.5719 -7.1250 0.0000 -0.0000 -47.2965 59.8274 -19.7103 0.0000 0.0000 0.0000 64.0477 -15.1666 66.2060 -40.1032 48.1309 -18.5160 0.0000 -0.0000 -21.2947 -13.8634 19.6965 -4.7549 7.1250 -0.0000 -0.0000 9.3340 -9.9507 7.6861
12.8100 17.5537 2.8101 -7.4244 -3.8254 3.3376 0.0000 0.0000 0.0000 -6.0489 -10.8471 -35.1436 1.8246 8.4906 24.2146 0.7864 -3.0539 -16.0004 1.0246 -6.4392 -18.0642 0.0000 0.0000 0.0000 31.2502 -3.4626 17.1585 0.0000 -0.0000 0.0000 -0.3812 1.7574 -11.1836 -0.0477 1.4090 -3.8750 5.6678 4.5448 1.0503 1.6922 6.0450 1.8588 -1.3603 3.0884 1.7314 -11.2967 -4.6227 -14.2609 7.0941 -5.1892 17.1614 3.6421 -2.5218 8.1575 -0.0000 -0.0000 0.0000 -87.8686 13.0369 3.2792 13.9014 -22.5936 -2.7901 -0.0000 -0.0000 14.3514 -7.5443 36.9910 -4.5561 -7.1250 0.0000 -0.0000 -47.9076 60.2880 -20.5764 -0.0000 -0.0000 0.0000 63.9113 -14.7889 66.7196 -39.9901 48.0640 -18.4319 0.0000 -0.0000 -21.4062 -13.7747 19.6962 -4.7234 7.1250 -0.0000 -0.0000 9.3911 -9.9605 7.7326
12.8218 17.5337 2.9857 -7.4868 -4.2836 3.5121 0.0000 0.0000 0.0000 -6.1163 -10.4599 -35.1722 1.8315 8.5059 24.2615 0.7735 -3.1528 -15.8487 1.0649 -6.5606 -18.4200 0.0000 0.0000 0.0000 31.1835 -3.1624 17.7847 0.0000 -0.0000 0.0000 -0.3747 1.6271 -11.1105 -0.0929 1.9656 -5.4107 5.6629 4.6727 1.1006 1.6521 6.2256 1.7200 -1.4071 3.1731 1.5759 -11.1252 -4.5377 -14.1861 7.0181 -5.1040 17.1550 3.5993 -2.4789 8.1263 -0.0000 -0.0000 0.0000 -87.7788 13.3419 3.0938 13.8746 -22.5552 -2.7798 -0.0000 -0.0000 14.4252 -8.3062 37.8497 -5.1189 -7.1250 0.0000 -0.0000 -49.6640 60.6937 -22.0487 -0.0000 -0.0000 0.0000 63.9783 -14.8867 66.9262 -39.9162 48.0202 -18.3770 0.0000 -0.0000 -21.3721 -14.0676 19.8850 -4.8716 7.1250 -0.0000 -0.0000 9.2081 -9.7386 7.6195
12.8430 17.5108 3.1649 -7.8719 -3.8096 3.6021 0.0000 0.0000 0.0000 -6.0490 -10.4997 -35.1751 1.8710 8.5921 24.5274 0.6889 -3.2258 -14.9166 1.2663 -7.1328 -20.1093 0.0000 0.0000 0.0000 31.4783 -3.7194 18.1192 0.0000 -0.0000 0.0000 -0.3746 1.6410 -11.1061 -0.1555 2.5411 -7.0037 6.2514 4.5559 1.0979 1.6508 6.0726 1.6738 -1.7328 3.1035 1.5824 -11.1404 -4.6010 -14.0204 7.1362 -5.2148 16.7666 3.6264 -2.5209 7.9818 0.0000 -0.0000 0.0000 -87.5611 13.1874 2.7402 13.5358 -22.0673 -2.6512 -0.0000 -0.0000 14.8559 -8.2620 37.3387 -5.0331 -7.1250 0.0000 -0.0000 -48.9829 60.3539 -21.2557 0.0000 -0.0000 0.0000 64.2618 -15.0139 66.5920 -39.9335 48.0304 -18.3898 0.0000 -0.0000 -21.0392 -13.7831 19.9850 -4.7925 7.1250 -0.0000 -0.0000 9.3938 -9.6690 7.7909
12.8472 17.5058 3.3296 -8.0608 -4.4058 3.9303 0.0000 0.0000 0.0000 -6.0598 -9.7272 -35.3926 1.9370 8.7337 24.9657 0.5994 -2.8782 -13.9260 1.3316 -7.3072 -20.6288 0.0000 0.0000 0.0000 31.5410 -3.1766 18.5782 0.0000 0.0000 -0.0000 -0.3533 1.6292 -10.7784 -0.2411 3.1600 -8.7246 6.2505 4.7342 0.9740 1.6647 6.2989 1.6938 -1.6998 3.2190 1.6884 -11.2847 -4.6045 -14.1085 7.3256 -5.2064 16.5622 3.7123 -2.5050 7.9378 -0.0000 -0.0000 0.0000 -87.4879 12.6583 1.9689 13.0062 -21.2963 -2.4555 -0.0000 -0.0000 15.4982 -7.9032 36.4638 -4.7163 -7.1250 0.0000 -0.0000 -47.5967 59.8304 -19.8758 -0.0000 -0.0000 0.0000 64.3654 -14.8240 66.3546 -39.9372 48.0326 -18.3925 0.0000 -0.0000 -20.8361 -13.3753 19.7866 -4.6019 7.1250 -0.0000 -0.0000 9.6506 -9.9121 7.9621
12.8595 17.4794 3.4957 -8.2044 -4.1447 3.8709 0.0000 0.0000 0.0000 -6.1600 -9.7498 -35.2930 2.0466 8.9624 25.6777 0.5333 -2.6720 -13.1379 1.0650 -6.5610 -18.4211 0.0000 0.0000 0.0000 31.5828 -3.6099 19.0618 0.0000 0.0000 -0.0000 -0.3246 1.6226 -10.3175 -0.3790 3.9538 -10.9468 6.3202 4.5654 1.2404 1.7295 6.0940 1.7129 -1.7001 3.1141 1.5436 -11.4196 -4.5141 -14.3509 7.4518 -5.0570 16.7669 3.7953 -2.4280 8.0407 0.0000 0.0000 0.0000 -87.5664 12.5820 1.2430 12.8924 -21.1294 -2.4144 -0.0000 -0.0000 16.1538 -8.2822 36.3658 -4.9331 -7.1250 0.0000 -0.0000 -47.8226 59.6707 -19.8117 0.0000 0.0000 0.0000 64.3518 -14.6451 66.3975 -39.7743 47.9356 -18.2715 0.0000 -0.0000 -20.6684 -13.1262 19.7971 -4.5158 7.1250 -0.0000 -0.0000 9.8110 -9.9278 8.0954
12.8599 17.4475 3.6574 -8.2935 -4.4204 3.6682 0.0000 0.0000 0.0000 -5.9958 -10.0632 -34.7826 2.1703 9.2121 26.4610 0.5023 -1.6024 -12.9297 0.9199 -6.1109 -17.1065 0.0000 0.0000 0.0000 31.5668 -3.6626 19.9088 0.0000 -0.0000 0.0000 -0.2857 1.5288 -9.6778 -0.5531 4.7640 -13.2366 6.1592 4.6506 1.8038 1.8357 6.2518 1.6993 -1.5546 3.1814 1.1970 -11.7735 -4.5096 -14.2589 7.6293 -5.0155 16.7558 3.9201 -2.4160 8.0310 0.0000 -0.0000 0.0000 -87.7459 12.6532 0.8603 12.8991 -21.1392 -2.4168 -0.0000 -0.0000 16.6793 -8.2609 36.6506 -4.9533 -7.1250 0.0000 -0.0000 -48.1427 59.8757 -20.2255 0.0000 -0.0000 0.0000 64.3674 -14.8009 66.1778 -39.7928 47.9467 -18.2852 0.0000 -0.0000 -20.5014 -12.7915 20.0246 -4.4454 7.1250 -0.0000 -0.0000 10.0311 -9.7346 8.3226
12.8786 17.4334 3.8708 -8.9048 -4.8299 3.7723 0.0000 0.0000 0.0000 -5.5592 -9.6473 -34.6677 2.3258 9.5140 27.4167 0.4380 -1.3324 -12.1098 0.9575 -6.2310 -17.4562 0.0000 0.0000 0.0000 31.9860 -3.4625 20.7519 0.0000 0.0000 -0.0000 -0.2534 1.4188 -9.1175 -0.6187 5.0339 -14.0052 6.8305 4.8780 1.4919 1.9913 6.5287 1.7575 -1.7203 3.3348 1.5108 -11.7203 -4.5961 -14.0509 7.2952 -5.0949 16.5114 3.7869 -2.4827 7.9121 -0.0000 -0.0000 0.0000 -87.7584 12.5739 1.0895 12.7192 -20.8744 -2.3523 -0.0000 -0.0000 16.7126 -7.6625 37.1120 -4.6410 -7.1250 0.0000 -0.0000 -48.1628 60.3437 -20.7830 -0.0000 -0.0000 0.0000 64.4267 -15.0501 65.8171 -40.0401 48.0937 -18.4691 0.0000 -0.0000 -20.4952 -12.4792 19.6628 -4.2589 7.1250 -0.0000 -0.0000 10.2243 -10.1286 8.4055
